<svg width="220" height="27" viewBox="0 0 220 27" fill="none" xmlns="http://www.w3.org/2000/svg">
<path d="M15.0979 6.49902L13.1816 17.7445H16.2464L18.1643 6.49902H15.0979Z" fill="white" fill-opacity="0.6"/>
<path d="M10.6114 6.51213L7.60962 14.1812L7.28958 13.0233C6.69759 11.628 5.01699 9.62423 3.04395 8.36142L5.78871 17.7395L9.03166 17.734L13.8583 6.50977L10.6114 6.51213Z" fill="white" fill-opacity="0.6"/>
<path d="M6.12645 7.31644C5.9483 6.63143 5.43198 6.42727 4.79112 6.40283H0.0394136L0 6.6267C3.69778 7.52376 6.14458 9.6852 7.15988 12.2841L6.12645 7.31644Z" fill="white" fill-opacity="0.6"/>
<path d="M24.3756 8.6552C25.3783 8.63944 26.1051 8.85858 26.6695 9.0856L26.9462 9.21566L27.3608 6.77833C26.7539 6.55052 25.8024 6.30615 24.6153 6.30615C21.5867 6.30615 19.4521 7.83146 19.4355 10.0173C19.4158 11.6325 20.9561 12.5343 22.1196 13.0727C23.3138 13.6245 23.7143 13.9753 23.7088 14.4679C23.6993 15.2207 22.7565 15.566 21.876 15.566C20.6487 15.566 19.9968 15.3965 18.9902 14.9771L18.5952 14.7974L18.1641 17.3144C18.8814 17.6289 20.2049 17.8993 21.5789 17.9135C24.8005 17.9135 26.8942 16.4063 26.9162 14.0706C26.9297 12.7928 26.1122 11.8178 24.341 11.0177C23.2689 10.4958 22.6131 10.149 22.6194 9.62241C22.6194 9.15497 23.1759 8.6552 24.3756 8.6552Z" fill="white" fill-opacity="0.6"/>
<path d="M35.2251 6.51172H32.8571C32.1216 6.51172 31.5746 6.71194 31.2514 7.44503L26.7007 17.7509H29.9192C29.9192 17.7509 30.4442 16.3651 30.5632 16.0616C30.9156 16.0616 34.0426 16.0664 34.488 16.0664C34.5795 16.4589 34.8617 17.7509 34.8617 17.7509H37.705L35.2251 6.51172ZM31.4453 13.7599C31.6975 13.1143 32.6663 10.617 32.6663 10.617C32.6498 10.6478 32.9162 9.96671 33.0747 9.54341L33.2812 10.513C33.2812 10.513 33.8684 13.1978 33.9914 13.7599H31.4453Z" fill="white" fill-opacity="0.6"/>
<path d="M156.001 16.3553V12.6996C156.001 11.3202 155.121 10.3916 153.705 10.3794C153.302 10.3534 152.899 10.4359 152.538 10.6186C152.178 10.8012 151.873 11.0771 151.655 11.4177C151.457 11.0872 151.174 10.8164 150.834 10.6337C150.495 10.4509 150.113 10.3631 149.728 10.3794C149.392 10.3633 149.059 10.4348 148.76 10.5869C148.46 10.7391 148.206 10.9666 148.022 11.2471V10.5159H146.752V16.3553H148.034V13.1212C148.034 12.1074 148.594 11.5712 149.462 11.5712C150.33 11.5712 150.732 12.1196 150.732 13.109V16.3553H152.006V13.1212C152.006 12.1074 152.591 11.5712 153.435 11.5712C154.278 11.5712 154.717 12.1196 154.717 13.109V16.3553H156.001ZM174.969 10.5208H172.895V8.75144H171.613V10.5208H170.429V11.6809H171.613V14.3398C171.613 15.6949 172.137 16.5015 173.639 16.5015C174.199 16.5034 174.749 16.3471 175.225 16.0507L174.86 14.9637C174.519 15.1666 174.132 15.2798 173.736 15.2927C173.102 15.2927 172.893 14.9028 172.893 14.3179V11.6809H174.967L174.969 10.5208ZM185.797 10.3746C185.488 10.3655 185.182 10.4403 184.911 10.5908C184.64 10.7414 184.415 10.9622 184.26 11.23V10.5208H183.002V16.3553H184.272V13.0847C184.272 12.1098 184.686 11.5834 185.517 11.5834C185.789 11.5795 186.059 11.6292 186.312 11.7296L186.702 10.533C186.411 10.4292 186.106 10.3756 185.797 10.3746ZM169.427 10.9839C168.708 10.5568 167.882 10.3453 167.046 10.3746C165.569 10.3746 164.609 11.0838 164.609 12.2414C164.609 13.1943 165.316 13.7793 166.622 13.962L167.219 14.0473C167.914 14.1448 168.245 14.3276 168.245 14.6566C168.245 15.1075 167.782 15.3658 166.914 15.3658C166.214 15.3881 165.527 15.1734 164.965 14.7566L164.387 15.7436C165.127 16.2606 166.013 16.5263 166.914 16.5015C168.598 16.5015 169.576 15.707 169.576 14.5981C169.576 13.5721 168.806 13.0359 167.538 12.8531L166.941 12.7678C166.393 12.6947 165.952 12.5851 165.952 12.1951C165.952 11.7686 166.366 11.5127 167.063 11.5127C167.702 11.5222 168.327 11.6941 168.881 12.0123L169.427 10.9839ZM203.43 10.3746C203.121 10.3655 202.814 10.4403 202.544 10.5908C202.273 10.7414 202.048 10.9622 201.892 11.23V10.5208H200.635V16.3553H201.904V13.0847C201.904 12.1098 202.319 11.5834 203.15 11.5834C203.422 11.5795 203.692 11.6292 203.944 11.7296L204.334 10.533C204.044 10.4292 203.738 10.3756 203.43 10.3746ZM187.079 13.4381C187.079 15.2074 188.313 16.5015 190.192 16.5015C190.954 16.5392 191.702 16.2906 192.29 15.8045L191.681 14.7785C191.242 15.1128 190.707 15.2965 190.155 15.3025C189.141 15.3025 188.398 14.5567 188.398 13.4356C188.398 12.3145 189.144 11.581 190.155 11.5688C190.707 11.5747 191.242 11.7585 191.681 12.0928L192.29 11.0667C191.702 10.5806 190.954 10.332 190.192 10.3697C188.313 10.3697 187.079 11.6638 187.079 13.4332V13.4381ZM198.968 13.4381V10.5135H197.698V11.2227C197.481 10.9433 197.201 10.7199 196.881 10.5711C196.56 10.4222 196.209 10.3524 195.855 10.3673C194.22 10.3673 192.931 11.6492 192.931 13.4307C192.931 15.2123 194.213 16.4942 195.855 16.4942C196.209 16.5091 196.56 16.4393 196.881 16.2904C197.201 16.1416 197.481 15.9182 197.698 15.6388V16.3456H198.968V13.4381ZM194.245 13.4381C194.245 12.412 194.915 11.5712 196.014 11.5712C197.064 11.5712 197.771 12.3779 197.771 13.4381C197.771 14.4982 197.064 15.3049 196.014 15.3049C194.915 15.3049 194.245 14.4617 194.245 13.4381ZM178.925 10.3746C177.219 10.3746 176.02 11.62 176.02 13.4381C176.02 15.2927 177.265 16.5015 179.01 16.5015C179.881 16.5321 180.733 16.2406 181.403 15.6827L180.782 14.7419C180.297 15.1298 179.697 15.3442 179.076 15.3512C178.257 15.3512 177.514 14.9735 177.331 13.9231H181.664C181.676 13.7646 181.688 13.6062 181.688 13.4356C181.688 11.6175 180.553 10.3721 178.917 10.3721L178.925 10.3746ZM178.9 11.5103C179.719 11.5103 180.243 12.0221 180.377 12.9263H177.353C177.487 12.083 177.999 11.5103 178.903 11.5103H178.9ZM210.742 13.4381V8.17627H209.472V11.2276C209.255 10.9482 208.975 10.7248 208.655 10.5759C208.334 10.4271 207.982 10.3572 207.629 10.3721C205.994 10.3721 204.705 11.6541 204.705 13.4356C204.705 15.2172 205.987 16.4991 207.629 16.4991C207.982 16.514 208.334 16.4441 208.655 16.2953C208.975 16.1465 209.255 15.923 209.472 15.6437V16.3504H210.742V13.4381ZM212.226 15.8167C212.276 15.8165 212.326 15.8265 212.372 15.846C212.417 15.865 212.457 15.8923 212.491 15.9264C212.525 15.9599 212.553 15.9996 212.572 16.0434C212.591 16.0888 212.602 16.1377 212.602 16.1872C212.602 16.2366 212.591 16.2855 212.572 16.3309C212.553 16.3747 212.525 16.4144 212.491 16.4479C212.457 16.4819 212.416 16.5092 212.372 16.5284C212.326 16.548 212.276 16.558 212.226 16.5576C212.151 16.5585 212.079 16.5375 212.016 16.4972C211.954 16.4569 211.905 16.3991 211.875 16.3309C211.855 16.2855 211.845 16.2366 211.845 16.1872C211.845 16.1377 211.855 16.0888 211.875 16.0434C211.913 15.9539 211.985 15.883 212.075 15.846C212.124 15.8254 212.177 15.8155 212.231 15.8167H212.226ZM212.226 16.4747C212.264 16.4753 212.302 16.4679 212.338 16.4528C212.371 16.4383 212.402 16.4176 212.428 16.3919C212.482 16.3375 212.513 16.2639 212.513 16.1872C212.513 16.1104 212.482 16.0368 212.428 15.9824C212.402 15.9566 212.372 15.9359 212.338 15.9215C212.302 15.9066 212.264 15.8991 212.226 15.8996C212.187 15.8991 212.148 15.9065 212.111 15.9215C212.068 15.9401 212.029 15.969 212 16.0057C211.97 16.0424 211.95 16.0858 211.941 16.1322C211.931 16.1786 211.934 16.2265 211.947 16.2717C211.961 16.317 211.985 16.3582 212.019 16.3919C212.045 16.418 212.077 16.4386 212.111 16.4528C212.149 16.4685 212.19 16.476 212.231 16.4747H212.226ZM212.248 16.0117C212.284 16.0091 212.32 16.0195 212.35 16.0409C212.362 16.0505 212.372 16.0628 212.378 16.0768C212.384 16.0907 212.387 16.106 212.387 16.1214C212.387 16.1345 212.385 16.1477 212.38 16.1599C212.375 16.172 212.367 16.183 212.357 16.192C212.335 16.2119 212.307 16.2239 212.277 16.2262L212.389 16.3553H212.301L212.197 16.2262H212.162V16.3553H212.089V16.0141L212.248 16.0117ZM212.162 16.075V16.1677H212.248C212.263 16.1721 212.279 16.1721 212.294 16.1677C212.3 16.1639 212.304 16.1588 212.307 16.1528C212.31 16.1469 212.311 16.1402 212.311 16.1335C212.311 16.1269 212.31 16.1202 212.307 16.1143C212.304 16.1083 212.3 16.1032 212.294 16.0994C212.279 16.095 212.263 16.095 212.248 16.0994L212.162 16.075ZM206.023 13.4381C206.023 12.412 206.693 11.5712 207.793 11.5712C208.843 11.5712 209.55 12.3779 209.55 13.4381C209.55 14.4982 208.843 15.3049 207.793 15.3049C206.693 15.3049 206.023 14.4617 206.023 13.4381ZM163.154 13.4381V10.5135H161.884V11.2227C161.668 10.9457 161.388 10.7243 161.069 10.5768C160.75 10.4293 160.4 10.36 160.049 10.3746C158.414 10.3746 157.124 11.6565 157.124 13.4381C157.124 15.2196 158.406 16.5015 160.049 16.5015C160.402 16.5164 160.754 16.4466 161.074 16.2977C161.395 16.1489 161.675 15.9255 161.891 15.6461V16.3529H163.161L163.154 13.4381ZM158.431 13.4381C158.431 12.412 159.101 11.5712 160.2 11.5712C161.251 11.5712 161.957 12.3779 161.957 13.4381C161.957 14.4982 161.251 15.3049 160.2 15.3049C159.101 15.3049 158.431 14.4641 158.431 13.4381Z" fill="white" fill-opacity="0.6"/>
<path d="M130.551 6.50195H122.874V20.2986H130.551V6.50195Z" fill="white" fill-opacity="0.6"/>
<path d="M123.361 13.4053C123.36 12.0768 123.661 10.7655 124.242 9.57056C124.822 8.37564 125.667 7.32843 126.712 6.5082C125.418 5.49099 123.863 4.85845 122.227 4.68286C120.59 4.50728 118.937 4.79575 117.456 5.51529C115.975 6.23483 114.727 7.35641 113.854 8.75186C112.98 10.1473 112.517 11.7603 112.517 13.4065C112.517 15.0527 112.98 16.6657 113.854 18.0612C114.727 19.4566 115.975 20.5782 117.456 21.2978C118.937 22.0173 120.59 22.3058 122.227 22.1302C123.863 21.9546 125.418 21.3221 126.712 20.3049C125.667 19.4844 124.822 18.4368 124.241 17.2414C123.661 16.046 123.36 14.7342 123.361 13.4053Z" fill="white"/>
<path d="M140.908 13.4039C140.908 15.0502 140.445 16.6633 139.571 18.0588C138.698 19.4543 137.449 20.5759 135.969 21.2953C134.488 22.0148 132.834 22.303 131.197 22.1272C129.561 21.9514 128.006 21.3185 126.712 20.301C127.757 19.48 128.601 18.4325 129.182 17.2375C129.763 16.0426 130.064 14.7313 130.064 13.4027C130.064 12.074 129.763 10.7628 129.182 9.56778C128.601 8.37279 127.757 7.3253 126.712 6.50433C128.006 5.48667 129.561 4.85379 131.198 4.67805C132.835 4.50231 134.489 4.7908 135.97 5.51053C137.451 6.23027 138.699 7.3522 139.572 8.74805C140.446 10.1439 140.909 11.7573 140.908 13.4039Z" fill="#F2BDBD"/>
<path d="M140.066 18.8368V18.5541H140.18V18.498H139.895V18.5565H140.01V18.8392L140.066 18.8368ZM140.629 18.8368V18.4956H140.553L140.451 18.7393L140.348 18.4956H140.258V18.8368H140.309V18.5809L140.404 18.8027H140.47L140.565 18.5809V18.8392L140.629 18.8368Z" fill="white" fill-opacity="0.6"/>
</svg>
